<svg xmlns="http://www.w3.org/2000/svg" style="display: none;">
  <symbol id="shuttle" viewBox="0 0 64 64" fill="none">
    <g clip-path="url(#clip0_601_33)">
    <path d="M10.4 19.2C13.02 19.2 15.34 20.46 16.8 22.4H45.6C52.53 22.4 59.1 24.67 63.52 30.56C64.16 31.41 64.16 32.59 63.52 33.44C59.1 39.33 52.53 41.6 45.6 41.6H16.8C15.34 43.54 13.02 44.8 10.4 44.8H9.6V54.4H8C5.349 54.4 3.2 52.25 3.2 49.6V44.8H4C1.791 44.8 0 43.01 0 40.8V23.2C0 20.99 1.789 19.2 3.996 19.2H3.2V14.4C3.2 11.749 5.349 9.59998 8 9.59998H9.6V19.2H10.4ZM47.64 27.2C47.31 27.2 47.2 27.31 47.2 27.64V36.36C47.2 36.6 47.31 36.8 47.64 36.8C49.61 36.8 51.2 35.21 51.2 33.24V30.76C51.2 28.79 49.61 27.2 47.64 27.2Z" fill="#0B3D91"/>
    <path d="M12.8 54.4H12.91C17.06 54.4 21.04 53.21 24.52 51.21L35.2 44.8H12.8V54.4Z" fill="#C3CDDD"/>
    <path d="M12.8 19.2H35.2L24.52 12.792C21.04 10.703 17.06 9.59998 12.91 9.59998H12.8V19.2Z" fill="#C3CDDD"/>
    </g>
    <defs>
    <clipPath id="clip0_601_33">
    <rect width="64" height="64" fill="white"/>
    </clipPath>
    </defs>
  </symbol>
  <symbol id="telescope" viewBox="0 0 64 64" fill="none">
    <path d="M13.445 31.25C13.1799 30.7908 12.7432 30.4556 12.231 30.3183C11.7189 30.1809 11.1731 30.2526 10.7138 30.5175L4.5 34.1012C3.91831 34.4346 3.41019 34.8824 3.0063 35.4176C2.6024 35.9527 2.31112 36.5642 2.15 37.215C1.83998 38.5055 2.04393 39.8659 2.71875 41.0087L3.26375 41.9512C3.92722 43.0985 5.01903 43.9354 6.29926 44.2781C7.57949 44.6208 8.94339 44.4412 10.0913 43.7787L16.3 40.2C16.5277 40.0688 16.7272 39.8941 16.8873 39.6857C17.0474 39.4774 17.1649 39.2395 17.233 38.9858C17.3012 38.732 17.3187 38.4673 17.2845 38.2068C17.2503 37.9463 17.1651 37.6951 17.0338 37.4675L13.445 31.25Z" fill="#C3CDDD" />
    <path d="M47.855 55.1L36.09 31.75C36.0614 31.693 36.0557 31.6271 36.074 31.566C36.0924 31.5049 36.1334 31.4531 36.1887 31.4213L37.2262 30.8225C37.4538 30.6912 37.6532 30.5164 37.8132 30.308C37.9732 30.0996 38.0905 29.8618 38.1586 29.608C38.2266 29.3543 38.2439 29.0896 38.2097 28.8291C38.1754 28.5687 38.0901 28.3175 37.9587 28.09L32.0175 17.7988C31.8863 17.5711 31.7115 17.3715 31.5032 17.2114C31.2949 17.0513 31.057 16.9339 30.8033 16.8657C30.5495 16.7976 30.2848 16.7801 30.0243 16.8143C29.7638 16.8485 29.5126 16.9337 29.285 17.065L18.4875 23.29C17.9175 23.6166 17.4179 24.053 17.0178 24.5739C16.6176 25.0949 16.3248 25.6901 16.1562 26.325C16.0416 26.7215 15.9839 27.1323 15.985 27.545C15.9925 28.495 17.135 30.3825 18.25 32.33C19.4487 34.4238 20.655 36.565 21.5425 37.0988C22.1075 37.4388 23.105 37.7113 23.9437 37.7113H24.0487L14.1337 59.1613C14.0233 59.3997 13.9609 59.6577 13.9502 59.9202C13.9394 60.1828 13.9806 60.445 14.0712 60.6917C14.1618 60.9384 14.3002 61.1648 14.4784 61.358C14.6566 61.5511 14.8711 61.7073 15.1097 61.8175C15.3483 61.9277 15.6063 61.9899 15.8689 62.0003C16.1315 62.0108 16.3936 61.9694 16.6402 61.8785C16.8868 61.7876 17.1131 61.649 17.3061 61.4706C17.4991 61.2922 17.655 61.0775 17.765 60.8388L29.475 35.5075C29.5611 35.32 29.7036 35.164 29.8825 35.0613L32.2837 33.6763C32.3132 33.6594 32.3459 33.6488 32.3796 33.6449C32.4134 33.6411 32.4475 33.6442 32.4801 33.654C32.5126 33.6639 32.5428 33.6802 32.5688 33.7021C32.5947 33.724 32.616 33.7509 32.6312 33.7813L44.2825 56.9063C44.4007 57.1408 44.5639 57.3498 44.7629 57.5213C44.9618 57.6928 45.1926 57.8234 45.4421 57.9057C45.6915 57.988 45.9547 58.0204 46.2167 58.001C46.4786 57.9815 46.7342 57.9107 46.9687 57.7925C47.2033 57.6743 47.4123 57.5111 47.5838 57.3121C47.7553 57.1132 47.8859 56.8824 47.9682 56.6329C48.0505 56.3835 48.0829 56.1203 48.0634 55.8583C48.044 55.5964 47.9732 55.3408 47.855 55.1063V55.1ZM61.2762 14.4675L55.5112 4.50003C54.8459 3.35445 53.7539 2.51903 52.4741 2.17655C51.1944 1.83407 49.8311 2.0124 48.6825 2.67253L37.015 9.39503C36.4448 9.72137 35.9451 10.1577 35.5449 10.6787C35.1447 11.1997 34.852 11.795 34.6837 12.43C34.518 12.9654 34.464 13.5291 34.525 14.0863C34.7425 15.6638 36.15 17.8863 37.8262 20.8225C39.5237 23.7888 41.44 27.1325 42.4425 27.8563C43.2899 28.4553 44.3022 28.7772 45.34 28.7775C46.2142 28.7778 47.0731 28.5476 47.83 28.11L59.5 21.3838C60.0805 21.0512 60.5878 20.6047 60.9914 20.0711C61.395 19.5375 61.6866 18.9279 61.8487 18.2788C62.161 16.9823 61.9557 15.6151 61.2762 14.4675Z" fill="#0B3D91" />
  </symbol>
  <symbol id="moon-stars" viewBox="0 0 64 64" fill="none">
    <g clip-path="url(#clip0_601_39)">
      <path d="M24 1.11197C24.3905 1.58642 24.6297 2.16706 24.6867 2.77886C24.7437 3.39067 24.616 4.00552 24.32 4.54397C22.0074 8.78987 20.7997 13.5491 20.808 18.384C20.808 34.468 33.92 47.492 50.08 47.492C52.188 47.492 54.24 47.272 56.212 46.852C56.8165 46.7211 57.4462 46.7711 58.0224 46.9959C58.5986 47.2207 59.0958 47.6103 59.452 48.116C59.828 48.6418 60.0196 49.2771 59.9972 49.923C59.9748 50.569 59.7395 51.1895 59.328 51.688C56.1907 55.5417 52.233 58.6468 47.7433 60.7767C43.2537 62.9067 38.3453 64.0079 33.376 64C14.936 64 0 49.144 0 30.84C0 17.064 8.456 5.24797 20.496 0.239973C21.0958 -0.0134993 21.7616 -0.0655234 22.3934 0.0917159C23.0252 0.248955 23.589 0.606968 24 1.11197Z" fill="#C3CDDD" />
      <path d="M43.176 12.592C43.2333 12.4188 43.3438 12.268 43.4917 12.1612C43.6397 12.0543 43.8175 11.9968 44 11.9968C44.1824 11.9968 44.3603 12.0543 44.5082 12.1612C44.6561 12.268 44.7666 12.4188 44.824 12.592L46.372 17.24C47.064 19.312 48.688 20.936 50.76 21.628L55.408 23.176C55.5812 23.2334 55.7319 23.3438 55.8388 23.4918C55.9456 23.6397 56.0031 23.8175 56.0031 24C56.0031 24.1825 55.9456 24.3603 55.8388 24.5082C55.7319 24.6561 55.5812 24.7666 55.408 24.824L50.76 26.372C49.7381 26.7125 48.8095 27.2862 48.0479 28.0479C47.2862 28.8095 46.7124 29.7381 46.372 30.76L44.824 35.408C44.7666 35.5812 44.6561 35.732 44.5082 35.8388C44.3603 35.9456 44.1824 36.0031 44 36.0031C43.8175 36.0031 43.6397 35.9456 43.4917 35.8388C43.3438 35.732 43.2333 35.5812 43.176 35.408L41.628 30.76C41.2875 29.7381 40.7137 28.8095 39.9521 28.0479C39.1904 27.2862 38.2619 26.7125 37.24 26.372L32.592 24.824C32.4188 24.7666 32.268 24.6561 32.1612 24.5082C32.0543 24.3603 31.9968 24.1825 31.9968 24C31.9968 23.8175 32.0543 23.6397 32.1612 23.4918C32.268 23.3438 32.4188 23.2334 32.592 23.176L37.24 21.628C38.2619 21.2875 39.1904 20.7137 39.9521 19.9521C40.7137 19.1905 41.2875 18.2619 41.628 17.24L43.176 12.592ZM55.452 0.395992C55.4915 0.282097 55.5655 0.183336 55.6637 0.113438C55.7619 0.0435411 55.8794 0.00598145 56 0.00598145C56.1205 0.00598145 56.2381 0.0435411 56.3363 0.113438C56.4345 0.183336 56.5085 0.282097 56.548 0.395992L57.58 3.49199C58.04 4.87599 59.124 5.95999 60.508 6.41999L63.604 7.45199C63.7179 7.49148 63.8166 7.56547 63.8865 7.66368C63.9564 7.7619 63.994 7.87945 63.994 7.99999C63.994 8.12054 63.9564 8.23809 63.8865 8.3363C63.8166 8.43451 63.7179 8.50851 63.604 8.54799L60.508 9.57999C59.8259 9.80688 59.2062 10.1897 58.6979 10.6979C58.1896 11.2062 57.8069 11.8259 57.58 12.508L56.548 15.604C56.5085 15.7179 56.4345 15.8166 56.3363 15.8865C56.2381 15.9564 56.1205 15.994 56 15.994C55.8794 15.994 55.7619 15.9564 55.6637 15.8865C55.5655 15.8166 55.4915 15.7179 55.452 15.604L54.42 12.508C54.1931 11.8259 53.8103 11.2062 53.302 10.6979C52.7938 10.1897 52.174 9.80688 51.492 9.57999L48.396 8.54799C48.2821 8.50851 48.1833 8.43451 48.1134 8.3363C48.0435 8.23809 48.006 8.12054 48.006 7.99999C48.006 7.87945 48.0435 7.7619 48.1134 7.66368C48.1833 7.56547 48.2821 7.49148 48.396 7.45199L51.492 6.41999C52.876 5.95999 53.96 4.87599 54.42 3.49199L55.452 0.399992V0.395992Z" fill="#0B3D91" />
    </g>
    <defs>
      <clipPath id="clip0_601_39">
        <rect width="64" height="64" fill="white" />
      </clipPath>
    </defs>
  </symbol>
  <symbol id="medal" viewBox="0 0 64 64" fill="none">
    <g clip-path="url(#clip0_601_50)">
    <path d="M48.4 0H35.6V12.9888C40.1803 13.4922 44.5713 15.0939 48.4 17.6576V0ZM29.2 0H16.4V17.6576C20.2288 15.0939 24.6198 13.4922 29.2 12.9888V0Z" fill="#0B3D91"/>
    <path d="M32.4004 19.2C38.3411 19.2001 44.0385 21.5598 48.2393 25.7605C52.4401 29.9613 54.7998 35.6595 54.7998 41.6003C54.7997 47.541 52.44 53.2385 48.2393 57.4392C44.0385 61.6399 38.3411 63.9997 32.4004 63.9998C26.4595 63.9998 20.7614 61.64 16.5605 57.4392C12.3599 53.2385 10.0001 47.541 10 41.6003C10 35.6595 12.3597 29.9613 16.5605 25.7605C20.7614 21.5597 26.4595 19.2 32.4004 19.2ZM28.4805 36.739L19.7217 38.0095L26.0605 44.1921L24.5635 52.9187L32.4004 48.7996L40.2402 52.9187L38.7422 44.1921L45.082 38.0095L36.3203 36.739L32.4004 28.7996L28.4805 36.739Z" fill="#C3CDDD"/>
    </g>
    <defs>
    <clipPath id="clip0_601_50">
    <rect width="64" height="64" fill="white"/>
    </clipPath>
    </defs>
  </symbol>
  <symbol id="arrow-left" viewBox="0 0 24 24" fill="none">
    <path d="M6 8L2 12L6 16" stroke="white" stroke-width="2" stroke-linecap="round" stroke-linejoin="round"/>
    <path d="M2 12H22" stroke="white" stroke-width="2" stroke-linecap="round" stroke-linejoin="round"/>
  </symbol>
  <symbol id="arrow-right" viewBox="0 0 24 24" fill="none">
    <path d="M18 8L22 12L18 16" stroke="white" stroke-width="2" stroke-linecap="round" stroke-linejoin="round"/>
    <path d="M2 12H22" stroke="white" stroke-width="2" stroke-linecap="round" stroke-linejoin="round"/>
  </symbol>
  <symbol id="mobile-menu-icon" viewBox="0 0 20 15" fill="none">
    <path d="M0 0H20V2.5H0V0ZM0 6.25H20V8.75H0V6.25ZM0 12.5H20V15H0V12.5Z" fill="white" />
  </symbol>
</svg>
